<?xml version="1.0" standalone="no"?>
<!DOCTYPE svg PUBLIC "-//W3C//DTD SVG 20010904//EN"
 "http://www.w3.org/TR/2001/REC-SVG-20010904/DTD/svg10.dtd">
<svg version="1.0" xmlns="http://www.w3.org/2000/svg"
 width="98.000000pt" height="98.000000pt" viewBox="0 0 98.000000 98.000000"
 preserveAspectRatio="xMidYMid meet">
<metadata>
Created by potrace 1.11, written by Peter Selinger 2001-2013
</metadata>
<g transform="translate(0.000000,98.000000) scale(0.100000,-0.100000)"
fill="#000000" stroke="none">
<path d="M280 920 c-138 -32 -147 -41 -134 -127 4 -27 8 -60 8 -75 1 -15 4
-29 7 -32 3 -4 36 7 73 24 110 50 236 51 250 1 5 -16 9 -67 7 -87 -1 -8 -29
-11 -84 -11 -105 0 -167 -26 -254 -110 -97 -94 -105 -172 -33 -330 32 -71 51
-83 155 -102 123 -22 168 -18 251 24 l76 37 27 -21 c47 -38 83 -53 125 -53 60
1 145 8 150 13 2 2 6 30 9 61 6 70 -4 85 -60 91 -24 2 -49 10 -57 16 -8 6 -26
51 -41 99 -25 81 -26 92 -16 152 7 36 10 81 7 100 -15 112 -69 248 -110 275
-26 17 -131 48 -201 59 -21 4 -47 8 -59 10 -12 2 -55 -4 -96 -14z m107 -36
c-12 -12 -117 -52 -117 -44 0 14 92 59 108 53 7 -3 11 -7 9 -9z m43 -11 c0 -5
-14 -16 -30 -25 -33 -19 -38 -14 -13 14 16 18 43 25 43 11z m40 -18 c-7 -9
-15 -13 -18 -10 -3 2 1 11 8 20 7 9 15 13 18 10 3 -2 -1 -11 -8 -20z m-232
-10 c-44 -30 -58 -31 -58 -6 0 20 17 27 70 30 23 1 22 -1 -12 -24z m344 -1
c32 -17 45 -34 24 -34 -8 0 -35 -9 -60 -20 -25 -10 -46 -17 -46 -14 0 3 9 19
21 35 23 33 18 35 -42 14 -47 -17 -46 -14 3 21 34 24 50 23 100 -2z m-247 -14
c-16 -18 -16 -20 -1 -26 9 -3 26 0 39 8 45 29 63 29 30 0 -18 -15 -46 -29 -63
-30 -18 -1 -48 -11 -68 -21 -21 -10 -47 -22 -59 -25 -20 -7 -23 -4 -23 23 0
27 4 31 43 41 23 5 58 19 77 29 45 24 46 25 25 1z m135 -40 c0 -5 -10 -10 -22
-10 -19 0 -20 2 -8 10 19 13 30 13 30 0z m170 -4 c9 -12 4 -19 -29 -36 -23
-11 -41 -16 -41 -10 0 6 11 16 25 22 14 6 25 17 25 25 0 17 5 17 20 -1z m-55
-12 c-11 -9 -32 -22 -47 -30 -24 -13 -28 -13 -28 0 0 8 19 21 43 29 54 20 56
20 32 1z m35 -55 c0 -7 10 -9 25 -5 21 5 25 2 31 -21 3 -16 7 -33 9 -40 9 -30
16 -126 11 -148 -4 -16 -13 -23 -26 -22 -26 2 -26 13 0 27 27 14 25 28 -4 36
-14 3 -47 -4 -84 -20 -34 -14 -72 -24 -84 -22 -13 2 -33 -1 -46 -5 -32 -12
-19 7 19 26 18 10 29 11 29 5 0 -6 18 3 39 20 31 25 47 31 77 28 25 -2 39 2
42 11 3 10 -6 12 -42 10 -25 -2 -46 -1 -46 3 0 5 4 8 8 8 19 0 75 57 68 69 -6
9 -11 10 -19 2 -16 -16 -30 -13 -23 4 7 19 -3 19 -28 0 -26 -20 -36 -19 -36 4
0 12 11 22 33 29 43 14 47 14 47 1z m-25 -84 c-41 -26 -65 -32 -65 -16 0 9 66
39 90 40 8 0 -3 -11 -25 -24z m-240 -44 c-13 -13 -85 -43 -85 -36 0 5 78 44
90 45 2 0 0 -4 -5 -9z m100 -15 c-22 -7 -55 -20 -72 -30 -40 -20 -43 -6 -7 23
19 15 41 21 73 20 l46 0 -40 -13z m-44 -60 c-18 -19 -31 -39 -27 -44 3 -5 -9
-23 -27 -38 -19 -16 -47 -53 -62 -83 -16 -29 -35 -56 -42 -58 -7 -3 -11 -9 -8
-13 3 -4 -12 -20 -33 -36 -20 -15 -42 -35 -49 -44 -11 -13 -12 -12 -13 7 0 14
12 29 36 43 19 12 33 24 30 27 -3 3 -15 -2 -28 -11 -12 -9 -27 -16 -32 -16 -6
0 17 20 51 44 62 46 82 66 64 66 -5 0 -12 -4 -15 -9 -7 -11 -56 -21 -56 -10 0
4 9 10 19 14 13 4 18 12 14 22 -4 11 -3 14 6 9 13 -8 91 40 91 55 0 15 -16 10
-44 -12 -48 -37 -48 -15 0 25 40 33 139 95 153 96 3 0 -10 -15 -28 -34z m-119
-22 c-67 -67 -111 -95 -130 -85 -16 10 -16 10 1 11 16 0 19 5 21 39 1 8 22 27
47 42 80 47 112 43 61 -7z m347 12 c-10 -10 -82 -47 -85 -44 -5 6 10 24 31 36
18 10 64 17 54 8z m-124 -135 l0 -95 -32 -19 c-39 -22 -115 -26 -138 -7 -26
22 -15 92 22 138 40 50 92 84 123 80 25 -3 25 -4 25 -97z m135 81 c0 -4 -17
-25 -39 -46 -36 -36 -39 -36 -44 -16 -3 12 -3 28 0 35 8 21 83 45 83 27z m30
-30 c0 -23 -19 -42 -42 -42 -17 0 -17 2 4 30 25 34 38 38 38 12z m-525 -51
c-3 -5 -1 -12 5 -16 13 -8 3 -25 -16 -25 -17 0 -18 22 -2 38 14 14 21 16 13 3z
m460 -30 c-23 -10 -42 -14 -44 -8 -5 14 13 22 51 24 l33 2 -40 -18z m80 9 c-3
-5 -14 -10 -23 -10 -15 0 -15 2 -2 10 20 13 33 13 25 0z m-12 -39 c-24 -20
-33 -41 -10 -24 19 16 47 11 47 -7 0 -9 11 -27 25 -40 28 -27 26 -32 -29 -54
-32 -13 -36 -14 -26 -1 14 17 5 35 -18 35 -12 0 -9 4 8 13 14 7 25 19 25 27 0
21 -54 20 -90 -2 -39 -24 -45 -23 -45 7 0 21 8 27 63 44 78 24 76 24 50 2z
m-529 -35 c-10 -8 -21 -12 -24 -9 -3 2 4 11 14 19 11 7 22 12 25 9 2 -3 -4
-12 -15 -19z m126 -37 c0 -10 5 -19 10 -19 22 0 8 -40 -25 -69 -41 -36 -44
-36 -71 -16 -18 15 -18 16 11 40 17 14 33 25 38 25 4 0 7 5 7 10 0 7 -6 7 -20
0 -28 -15 -25 -1 7 32 28 29 43 29 43 -3z m260 -15 c0 -14 7 -15 41 -10 l40 6
-49 -49 c-49 -49 -109 -76 -153 -69 -15 2 -4 14 46 51 36 26 63 52 60 57 -4 6
-19 0 -38 -13 -18 -13 -39 -28 -47 -32 -13 -8 -13 -7 0 11 44 56 100 83 100
48z m-155 -34 c3 -5 12 -7 20 -3 24 8 18 -5 -19 -42 -18 -19 -43 -35 -55 -35
-23 0 -28 14 -9 26 9 6 6 10 -10 14 -21 5 -22 6 -7 28 17 23 68 31 80 12z
m435 -20 c-18 -11 -22 -7 -14 14 5 13 10 14 18 6 8 -8 7 -13 -4 -20z m-170 0
c-6 -11 -15 -18 -21 -14 -6 4 -6 11 2 20 17 21 31 17 19 -6z m130 -3 c0 -7
-13 -26 -29 -41 -29 -28 -30 -28 -24 -5 10 42 53 79 53 46z m87 -23 c-6 -45
-8 -46 -53 -42 l-37 3 39 38 c21 20 42 37 47 37 5 0 6 -16 4 -36z m-172 -14
c-3 -5 -11 -10 -16 -10 -6 0 -7 5 -4 10 3 6 11 10 16 10 6 0 7 -4 4 -10z"/>
</g>
</svg>
